<svg width="24.000000" height="24.000000" viewBox="0 0 24 24" fill="none" xmlns="http://www.w3.org/2000/svg" xmlns:xlink="http://www.w3.org/1999/xlink">
	<desc>
			Created with Pixso.
	</desc>
	<defs>
		<clipPath id="clip19_2920">
			<rect id="Frame" rx="-0.500000" width="23.000000" height="23.000000" transform="translate(0.500000 0.500000)" fill="white" fill-opacity="0"/>
		</clipPath>
	</defs>
	<rect id="Frame" rx="-0.500000" width="23.000000" height="23.000000" transform="translate(0.500000 0.500000)" fill="#FFFFFF" fill-opacity="0"/>
	<g clip-path="url(#clip19_2920)">
		<path id="Vector" d="M14.74 9L14.39 18M9.6 18L9.25 9M3.75 5.95C4.08 5.89 4.43 5.84 4.77 5.79C5.92 5.61 7.08 5.48 8.25 5.39C10.74 5.2 13.25 5.2 15.75 5.39C16.91 5.48 18.07 5.61 19.22 5.79C19.56 5.84 19.91 5.89 20.25 5.95M19.22 5.79L18.16 19.67C18.11 20.23 17.86 20.76 17.44 21.15C17.02 21.53 16.48 21.75 15.91 21.75L8.08 21.75C7.51 21.75 6.97 21.53 6.55 21.15C6.13 20.76 5.88 20.23 5.83 19.67L4.77 5.79M15.75 5.39L15.75 4.47C15.75 3.29 14.83 2.31 13.66 2.27C12.55 2.24 11.44 2.24 10.33 2.27C9.16 2.31 8.25 3.29 8.25 4.47L8.25 5.39" stroke="#F14749" stroke-opacity="1.000000" stroke-width="1.500000" stroke-linejoin="round" stroke-linecap="round"/>
	</g>
</svg>
