<svg width="28.000000" height="28.000000" viewBox="0 0 28 28" fill="none" xmlns="http://www.w3.org/2000/svg" xmlns:xlink="http://www.w3.org/1999/xlink">
	<desc>
			Created with Pixso.
	</desc>
	<defs>
		<clipPath id="clip19_1532">
			<rect id="user 1" rx="-0.500000" width="27.000000" height="27.000000" transform="translate(0.500000 0.500000)" fill="white" fill-opacity="0"/>
		</clipPath>
	</defs>
	<rect id="user 1" rx="-0.500000" width="27.000000" height="27.000000" transform="translate(0.500000 0.500000)" fill="#FFFFFF" fill-opacity="0"/>
	<g clip-path="url(#clip19_1532)">
		<path id="Vector" d="M14 14.53C18 14.53 21.27 11.26 21.27 7.26C21.27 3.26 18 0 14 0C10 0 6.73 3.26 6.73 7.26C6.73 11.26 10 14.53 14 14.53Z" fill="#131313" fill-opacity="0.800000" fill-rule="nonzero"/>
		<path id="Vector" d="M26.47 20.34C26.28 19.87 26.03 19.42 25.74 19.01C24.28 16.85 22.03 15.42 19.49 15.07C19.17 15.04 18.82 15.11 18.57 15.3C17.24 16.28 15.65 16.79 14 16.79C12.35 16.79 10.76 16.28 9.43 15.3C9.17 15.11 8.82 15.01 8.5 15.07C5.97 15.42 3.68 16.85 2.25 19.01C1.97 19.42 1.71 19.9 1.52 20.34C1.43 20.53 1.46 20.76 1.55 20.95C1.81 21.39 2.12 21.84 2.41 22.22C2.85 22.82 3.33 23.36 3.87 23.87C4.31 24.31 4.82 24.73 5.33 25.14C7.84 27.01 10.85 28 13.97 28C17.08 28 20.09 27.01 22.6 25.14C23.11 24.76 23.62 24.31 24.06 23.87C24.57 23.36 25.08 22.82 25.52 22.22C25.84 21.8 26.12 21.39 26.38 20.95C26.54 20.76 26.57 20.53 26.47 20.34Z" fill="#131313" fill-opacity="0.800000" fill-rule="nonzero"/>
	</g>
</svg>
